PathFileType	4	(X/Y/Z)	C:\Users\Basilio\Documents\Thesis Gigler\squatting_fais\c3dfiles\019\SJ_pre3\markers_experimental.trc
DataRate	CameraRate	NumFrames	NumMarkers	Units	OrigDataRate	OrigDataStartFrame	OrigNumFrames
200.000000	200.000000	4	59	mm	200.000000	325	1302
Frame#	Time	FHD			RBHD			C7			T10			CLAV			LSHO			LUUPA			LMUPA			LDUPA			LLEP			LMEP			LRAD			LUL			LRFIN			RSHO			RUPA1			RMUPA			RDUPA			RLEP			RMEP			RRAD			RUL			RUFIN			LASI			RASI			USACR			LSACR			RSACR			LTHI1			LTHI2			LTHI3			LTHI4			LLFC			LTIB1			LTIB2			LTIB3			LTIB4			LLMAL			LMMAL			LHEE			LMT1			LMT2			LMT5			RTHI			RTHI2			RTHI3			RTHI4			RLFC			RTIB1			RTIB2			RTIB3			RTIB4			RLMAL			RMMAL			RHEE			RMT1			RMT2			RMT5			LBHD			
		X1	Y1	Z1	X2	Y2	Z2	X3	Y3	Z3	X4	Y4	Z4	X5	Y5	Z5	X6	Y6	Z6	X7	Y7	Z7	X8	Y8	Z8	X9	Y9	Z9	X10	Y10	Z10	X11	Y11	Z11	X12	Y12	Z12	X13	Y13	Z13	X14	Y14	Z14	X15	Y15	Z15	X16	Y16	Z16	X17	Y17	Z17	X18	Y18	Z18	X19	Y19	Z19	X20	Y20	Z20	X21	Y21	Z21	X22	Y22	Z22	X23	Y23	Z23	X24	Y24	Z24	X25	Y25	Z25	X26	Y26	Z26	X27	Y27	Z27	X28	Y28	Z28	X29	Y29	Z29	X30	Y30	Z30	X31	Y31	Z31	X32	Y32	Z32	X33	Y33	Z33	X34	Y34	Z34	X35	Y35	Z35	X36	Y36	Z36	X37	Y37	Z37	X38	Y38	Z38	X39	Y39	Z39	X40	Y40	Z40	X41	Y41	Z41	X42	Y42	Z42	X43	Y43	Z43	X44	Y44	Z44	X45	Y45	Z45	X46	Y46	Z46	X47	Y47	Z47	X48	Y48	Z48	X49	Y49	Z49	X50	Y50	Z50	X51	Y51	Z51	X52	Y52	Z52	X53	Y53	Z53	X54	Y54	Z54	X55	Y55	Z55	X56	Y56	Z56	X57	Y57	Z57	X58	Y58	Z58	X59	Y59	Z59	

326	1.625	-34.56860733032227	937.9241333007815	-1007.198181152344	-33.6119613647461	935.7855224609377	-867.1995239257815	-115.4479675292969	843.7104492187502	-933.0013427734377	-366.0387878417969	706.6819458007814	-937.319763183594	-50.95068359375001	707.2531127929689	-933.8068847656252	-63.30389404296876	779.9926757812502	-1085.8544921875	-179.7456665039063	723.0945434570314	-1199.256225585938	-214.2058410644532	692.9421997070314	-1182.703857421875	-234.4964904785157	709.9674682617189	-1236.293579101563	-294.9818420410157	722.1947631835939	-1294.872802734375	-340.0829162597657	775.8345947265627	-1272.28955078125	-473.8235778808595	594.5082397460939	-1163.685546875	-468.1777954101564	555.2787475585939	-1219.572265625	-439.9996948242189	567.2464599609376	-1127.141845703125	-57.78130340576173	772.7254028320315	-789.625183105469	-185.4724884033203	780.6257934570315	-650.8643798828126	-200.3063964843751	732.3209228515626	-644.2308349609376	-234.2786712646485	764.5539550781251	-603.1408691406251	-301.4584350585938	728.7741088867189	-565.9098510742189	-336.9237060546876	783.8863525390627	-586.8985595703126	-473.7459106445314	602.4518432617189	-714.6210937500001	-460.7122802734376	551.4332885742189	-670.2905273437501	-443.828338623047	572.4310302734376	-761.4616088867189	-409.9085998535157	510.4188842773439	-1042.223266601563	nan	nan	nan	-495.2472534179689	629.0182495117189	-943.4180297851565	-525.7048339843751	610.9499511718751	-970.3520507812502	-522.1225585937501	608.8277587890626	-914.0806274414065	-402.255340576172	441.1467895507814	-1185.10791015625	-325.1763610839844	472.5320739746095	-1208.546875	-309.4780883789063	512.2892456054689	-1184.540893554688	-276.2153930664063	440.0503845214845	-1226.280029296875	-194.0203552246094	418.908172607422	-1235.201049804688	-162.4886474609375	285.0624084472657	-1214.405883789063	-242.6840820312501	269.1625976562501	-1250.960327148438	-206.5607299804688	253.0387115478516	-1233.516967773438	-238.1011962890626	183.7059936523438	-1193.665283203125	-361.2731018066407	97.25917053222659	-1198.64697265625	-321.8629150390626	94.25383758544923	-1119.9296875	-416.8976135253907	48.33802413940431	-1134.574951171875	-204.6502075195313	55.74119186401369	-1186.190063476563	-215.6767272949219	58.25344467163087	-1223.723266601563	-271.2713623046876	35.94503784179688	-1262.142822265625	-459.6629028320314	474.7283020019532	-728.6129150390626	-403.0509338378907	503.0350341796876	-722.3040161132814	-395.5652465820314	518.8298339843751	-750.1299438476564	-337.7709960937501	474.5335388183595	-682.4503173828126	-196.8786010742188	422.8274230957032	-652.3765258789064	-178.5457916259766	250.9650878906251	-698.1049194335939	-273.7969055175782	208.0793609619141	-662.7404785156251	-237.6953430175782	191.4404754638672	-687.2828979492189	-249.0174102783204	149.7723541259766	-727.9340820312501	-349.6464233398438	97.88906097412112	-702.8316040039064	-310.0587463378907	93.55267333984376	-774.4597778320315	-397.677703857422	45.76660919189454	-768.3494873046877	-197.1764068603516	53.34216690063478	-707.3542480468751	-211.1278381347657	60.36792373657228	-664.0646972656251	-267.6187744140626	41.71952438354493	-629.6090087890626	nan	nan	nan	
327	1.63	-34.75627517700196	938.1721191406252	-1007.660278320313	-33.49200439453126	935.9652099609377	-867.5037231445315	-115.5707778930664	843.9318847656252	-933.3438110351565	-365.8875122070313	706.8150634765626	-937.366882324219	-50.72628402709962	707.5066528320314	-933.9757080078127	-63.16428375244142	780.300476074219	-1086.035522460938	-178.6412506103516	723.4445800781251	-1200.450927734375	-214.0553131103516	693.0084838867189	-1182.7958984375	-234.4770660400391	709.9656982421876	-1236.379638671875	-294.9790649414063	722.2118530273439	-1294.989868164063	-340.0686950683594	775.7949218750002	-1272.3642578125	-473.7658996582032	594.4664306640626	-1163.689453125	-468.151092529297	555.2434692382814	-1219.537109375	-439.9164428710939	567.2583007812501	-1127.119018554688	-57.54019927978517	773.2081298828127	-789.595886230469	-185.3149719238282	780.816589355469	-650.9470214843751	-200.1146087646485	732.5681762695314	-644.4284057617189	-233.9990539550782	764.9815063476564	-603.3823852539064	-301.1773681640626	729.1647949218751	-566.1765136718751	-337.0091247558594	784.3630981445315	-587.2214965820314	-473.5250549316407	602.4996337890626	-714.4543457031251	-456.249725341797	557.8594970703126	-670.0227050781251	-443.5669860839845	572.4795532226564	-761.3545532226564	-409.840789794922	510.6837768554689	-1042.24267578125	nan	nan	nan	-495.1863708496095	629.1607055664064	-943.365661621094	-525.7625732421876	611.0984497070314	-970.3559570312502	-522.0460205078126	608.9780273437501	-914.049499511719	-402.3613281250001	441.2501220703126	-1185.057373046875	-325.1767578125001	472.5919189453126	-1208.554565429688	-309.4172668457032	512.2701416015626	-1184.438842773438	-276.2333679199219	440.1069641113282	-1226.257202148438	-194.0399932861329	418.9166564941407	-1235.046630859375	-162.512680053711	285.1039123535157	-1214.388427734375	-242.718002319336	269.1505126953126	-1250.962768554688	-206.673812866211	253.0193023681641	-1233.535400390625	-238.1884155273438	183.7336120605469	-1193.638671875	-361.2851562500001	97.2686462402344	-1198.6494140625	-321.8281250000001	94.24153137207033	-1119.899047851563	-416.8703613281251	48.33374023437501	-1134.534301757813	-204.5998992919922	55.72056579589845	-1186.147827148438	-215.7027893066407	58.25653457641603	-1223.71337890625	-271.2633361816407	35.89421844482423	-1262.148071289063	-459.5457458496095	474.9277954101564	-728.6629028320314	-402.8738098144532	503.2171630859376	-722.3241577148439	-395.3220520019532	518.9505004882814	-750.1422119140626	-337.5675048828126	474.6105346679689	-682.5249023437501	-196.6159210205079	422.8455200195314	-652.5214843750001	-178.4668121337891	250.8773345947266	-698.2144775390626	-273.6525268554688	208.0894165039063	-662.7644653320314	-237.5942382812501	191.4806518554688	-687.3259887695314	-248.8882598876954	149.5567016601563	-728.1062622070314	-349.6611022949219	97.92372894287112	-702.8262329101564	-310.0662231445313	93.54522705078126	-774.501403808594	-397.7955017089845	45.88824462890626	-768.3169555664065	-197.1442413330079	53.31703948974611	-707.4264526367189	-211.1057434082032	60.35359954833986	-664.1006469726564	-267.6150817871094	41.76324462890626	-629.6597290039064	nan	nan	nan	
328	1.635	-34.83689880371094	938.5068969726565	-1007.989135742188	-33.40449142456055	936.1675415039065	-867.7949829101565	-115.1766204833985	844.028015136719	-933.2691650390627	-365.8990783691407	706.8933105468751	-937.4154052734377	-50.52175903320314	707.8295898437501	-934.1941528320315	-63.21229553222658	780.4388427734377	-1086.13037109375	-178.4740753173828	723.5447387695314	-1200.700805664063	-214.0703125000001	693.1389160156251	-1182.851196289063	-234.4429931640626	710.0692138671876	-1236.446655273438	-294.8847045898438	722.2038574218751	-1295.082641601563	-340.0274963378907	775.745788574219	-1272.442993164063	-473.7073364257814	594.4388427734376	-1163.697265625	-468.053680419922	555.1583862304689	-1219.543579101563	-441.2796936035157	567.7340698242189	-1127.109985351563	-57.29470825195314	773.3385009765627	-789.8581542968752	-185.0655212402344	781.1087646484377	-651.1186523437501	-199.8164672851563	732.9799804687501	-644.6435546875001	-235.2771606445313	760.9703979492189	-604.4093017578126	-300.8790588378907	729.4494018554689	-566.3397216796876	-336.6159057617188	784.4883422851565	-587.3421630859376	-473.1927490234376	602.4912109375001	-714.3419189453126	-458.0812988281251	555.7285766601564	-668.8019409179689	-443.1645812988282	572.5946655273439	-761.1562500000001	-409.4963684082032	511.2353820800782	-1042.377075195313	nan	nan	nan	-495.1846923828126	629.3269042968751	-943.3669433593752	-525.6049804687501	611.2359008789064	-970.3044433593752	-521.8544311523439	609.0679321289064	-914.0003662109377	-402.363250732422	441.3446044921876	-1185.026489257813	-325.1663513183594	472.6588134765626	-1208.500122070313	-309.3781433105469	512.2998046875001	-1184.418823242188	-276.2118835449219	440.1222229003907	-1226.20849609375	-194.0537261962891	418.9994506835939	-1235.023193359375	-162.5208282470703	285.1109619140626	-1214.398193359375	-242.7336425781251	269.1563720703126	-1250.9140625	-206.6031494140626	253.034408569336	-1233.534301757813	-238.0791168212891	183.6492767333985	-1193.746826171875	-361.2814331054688	97.26554107666018	-1198.648681640625	-321.9219970703126	94.27954864501955	-1119.905395507813	-416.4591369628907	47.85703277587891	-1134.451171875	-204.6311187744141	55.7163543701172	-1186.121459960938	-215.7065887451172	58.26512908935548	-1223.722900390625	-271.2835693359376	35.8851547241211	-1262.1376953125	-459.3756408691407	475.0002441406251	-728.5633544921876	-402.6463928222657	503.313934326172	-722.3223266601564	-395.1504821777345	518.9891967773439	-750.1636962890626	-337.4073791503907	474.6881713867189	-682.5506591796876	-196.4227142333985	422.7037353515626	-652.5850219726564	-178.3956909179688	250.7861480712891	-698.3342285156251	-273.6108093261719	208.0878601074219	-662.8424072265626	-237.5138702392579	191.4186706542969	-687.4035644531251	-248.9785766601563	149.6140899658203	-728.1917724609376	-349.6333923339844	97.91230773925784	-702.8262939453126	-310.0655822753907	93.5469436645508	-774.495788574219	-397.7457275390626	45.84196472167969	-768.3344726562502	-197.1255798339844	53.25329971313478	-707.4711303710939	-211.1027221679688	60.35473632812501	-664.1469116210939	-267.4961853027344	41.70710754394532	-629.7100830078126	nan	nan	nan	
329	1.64	-34.70373916625977	938.6730957031252	-1008.210693359375	-33.30776596069337	936.3555297851565	-868.0078735351565	-115.3611221313477	844.2775878906252	-933.7186279296877	-365.5731506347657	707.0167236328126	-937.4938964843752	-50.4339065551758	708.1342163085939	-934.3831787109377	-63.04186248779298	780.6406250000002	-1086.249389648438	-179.619857788086	723.3806762695314	-1199.589477539063	-213.9990539550782	693.1984252929689	-1182.943725585938	-234.4478759765626	710.1425781250001	-1236.537109375	-294.9377441406251	722.1863403320314	-1295.219970703125	-340.0876159667969	775.6981201171877	-1272.513061523438	-473.4915161132814	594.2998046875001	-1163.742553710938	-467.9324951171876	555.0620727539064	-1219.482788085938	-441.1048583984376	567.7206420898439	-1127.127197265625	-57.22472381591798	774.0211181640627	-790.224304199219	-184.878158569336	781.2673950195315	-651.3436889648439	-199.6095733642579	733.1558837890626	-644.9495849609376	-233.4841003417969	765.7626953125001	-603.8580932617189	-300.6447448730469	729.7029418945314	-566.6079711914064	-338.6350097656251	785.549011230469	-589.0723876953126	-473.0712280273439	602.4859008789064	-714.2429809570314	-457.150360107422	556.7318115234376	-669.4582519531251	-443.2167053222657	572.5620727539064	-761.1257324218751	-409.3100585937501	511.2443237304689	-1042.180419921875	nan	nan	nan	-495.057342529297	629.4067993164064	-943.3128662109377	-525.4747314453126	611.2574462890626	-970.2437133789065	-521.7717895507814	609.1277465820314	-914.0130004882815	-402.2960815429689	441.3885803222657	-1184.988647460938	-325.1109619140626	472.6705627441407	-1208.405029296875	-309.3819885253907	512.3696899414064	-1184.45361328125	-276.1782531738282	440.1426391601564	-1226.158447265625	-194.0308685302735	418.9117431640626	-1235.104736328125	-162.5355834960938	285.1465759277344	-1214.38818359375	-242.7267150878907	269.1999816894532	-1250.91796875	-206.5444488525391	253.0724182128907	-1233.46142578125	-238.2108612060547	183.7665100097657	-1193.638061523438	-361.2692260742188	97.25662231445315	-1198.613403320313	-321.7843627929688	94.22413635253908	-1119.915771484375	-416.9006347656251	48.39299774169923	-1134.469604492188	-204.5572967529297	55.68784332275392	-1186.130737304688	-216.1081848144532	58.5065269470215	-1223.749755859375	-271.2617187500001	35.92552947998048	-1262.16455078125	-459.195037841797	475.1333923339845	-728.5434570312501	-402.4992980957032	503.3840942382814	-722.4067993164064	-395.0482788085939	519.1542358398439	-750.1280517578126	-337.1058654785157	474.7326660156251	-682.5780029296876	-196.3003845214844	422.745086669922	-652.7647705078126	-178.170639038086	250.6550903320313	-698.3884277343751	-273.5493774414063	208.0773010253907	-662.8959350585939	-237.4954833984376	191.4952545166016	-687.4970092773439	-249.0015563964844	149.746810913086	-727.8589477539064	-349.6382751464844	97.94165802001956	-702.8476562500001	-310.0792846679688	93.55388641357423	-774.5161743164065	-397.8694763183595	45.93206024169923	-768.2593383789065	-197.1220092773438	53.31795501708986	-707.4517822265626	-211.0581512451172	60.40106201171876	-664.1425170898439	-267.5587463378907	41.77114486694337	-629.7115478515626	nan	nan	nan	
